<svg xmlns="http://www.w3.org/2000/svg" viewBox="0 0 900 520" role="img" aria-labelledby="title desc">
  <title id="title">Distributed banking systems visual</title>
  <desc id="desc">Abstract network of banking services, events, APIs, and databases.</desc>
  <defs>
    <linearGradient id="g" x1="0" y1="0" x2="1" y2="1"><stop stop-color="#19d3ff"/><stop offset=".55" stop-color="#7b61ff"/><stop offset="1" stop-color="#23f0ad"/></linearGradient>
    <filter id="glow"><feGaussianBlur stdDeviation="7" result="b"/><feMerge><feMergeNode in="b"/><feMergeNode in="SourceGraphic"/></feMerge></filter>
  </defs>
  <rect width="900" height="520" rx="34" fill="#08111f"/>
  <path d="M0 413c151-88 288-78 412-21 141 65 262 37 488-91v219H0z" fill="#0d2033"/>
  <g stroke="#35506c" stroke-width="2" opacity=".85">
    <path d="M145 270h170l116-106h182l132 126"/><path d="M315 270l121 88h178l131-68"/><path d="M431 164v194"/><path d="M613 164v194"/><path d="M145 270v-96h168"/><path d="M745 290v-93H613"/>
  </g>
  <g filter="url(#glow)">
    <circle cx="145" cy="270" r="34" fill="#10253a" stroke="url(#g)" stroke-width="3"/><circle cx="315" cy="270" r="34" fill="#10253a" stroke="url(#g)" stroke-width="3"/><circle cx="431" cy="164" r="40" fill="#10253a" stroke="url(#g)" stroke-width="3"/><circle cx="613" cy="164" r="40" fill="#10253a" stroke="url(#g)" stroke-width="3"/><circle cx="745" cy="290" r="34" fill="#10253a" stroke="url(#g)" stroke-width="3"/><circle cx="431" cy="358" r="34" fill="#10253a" stroke="url(#g)" stroke-width="3"/><circle cx="613" cy="358" r="34" fill="#10253a" stroke="url(#g)" stroke-width="3"/>
  </g>
  <g fill="#dcecff" font-family="Inter, Arial" font-size="22" font-weight="700" text-anchor="middle"><text x="145" y="278">API</text><text x="315" y="278">SAF</text><text x="431" y="171">RTGS</text><text x="613" y="171">RAAST</text><text x="745" y="298">ISO</text><text x="431" y="366">Kafka</text><text x="613" y="366">DB</text></g>
</svg>
